<?xml version="1.0" encoding="UTF-8" standalone="no"?>
<!DOCTYPE svg PUBLIC "-//W3C//DTD SVG 1.1//EN" "http://www.w3.org/Graphics/SVG/1.1/DTD/svg11.dtd">
<svg width="100%" height="100%" viewBox="0 0 501 501" version="1.1" xmlns="http://www.w3.org/2000/svg" xmlns:xlink="http://www.w3.org/1999/xlink" xml:space="preserve" xmlns:serif="http://www.serif.com/" style="fill-rule:evenodd;clip-rule:evenodd;stroke-linejoin:round;stroke-miterlimit:2;">
    <g transform="matrix(1,0,0,1,-86.767358,-71.731885)">
        <g id="favicon.png" transform="matrix(1,0,0,1,84.836521,69.500482)">
            <path d="M39.522,2.665C51.761,2.035 146.922,2.636 168.492,2.355L169.5,3.996C248.965,83.165 248.715,83.501 252.011,85.517C252.029,87.394 251.758,95.315 252.807,96.021C253.609,96.561 261.152,96.427 262.503,96.435L263.5,97.949C264.206,98.474 264.045,98.535 271.268,105.732C274.512,108.963 274.666,108.701 277.497,112.422C260.085,112.374 253.597,112.195 252.752,112.82C251.38,113.837 252.016,168.741 252.42,169.556C253.183,171.095 253.884,170.271 330.497,170.414C329.353,171.639 329.376,171.575 325.949,174.949C322.683,178.214 322.77,178.155 319.469,181.5C316.858,183.996 316.955,184.009 314.502,186.59C300.502,186.595 286.501,186.6 272.5,186.605C255.52,186.605 252.529,185.983 252.075,188.43C252.009,188.784 252.058,242.37 252.065,242.555C252.167,245.532 253.531,244.276 256.503,244.621C253.471,247.61 253.516,247.566 250.516,250.525C33.512,34.765 34.415,33.976 15.38,15.392C16.458,14.277 22.086,8.458 31.588,4.769C31.966,4.622 31.992,4.829 36.493,3.47C37.503,3.202 38.513,2.933 39.522,2.665Z" style="fill:rgb(133,26,63);fill-opacity:1;"/>
            <path d="M15.38,15.392C34.415,33.976 33.512,34.765 250.516,250.525C237.026,263.753 237.132,263.793 236.018,264.55C235.74,258.765 233.218,260.607 227.5,260.605C183.169,260.613 138.837,260.621 94.506,260.629C88.033,252.631 87.679,252.975 3.737,169.5L2.216,168.51C1.959,46.927 1.369,46.839 3.353,36.463C5.306,26.249 14.06,16.814 15.38,15.392Z" style="fill:rgb(89,18,42);fill-opacity:1;"/>
            <path d="M369.497,38.415C423.681,38.285 426.852,36.824 447.076,51.838C447.647,52.261 447.612,52.181 448.257,52.596C456.355,61.657 474.253,81.952 463.037,131.405C462.833,131.938 456.601,158.381 427.516,167.554C416.756,170.947 409.363,170.394 387.5,170.394C349.954,170.394 350.063,170.418 336.488,170.345L330.497,170.414C253.884,170.271 253.183,171.095 252.42,169.556C252.016,168.741 251.38,113.837 252.752,112.82C253.597,112.195 260.085,112.374 277.497,112.422C293.633,112.377 370.157,112.343 388.505,112.432C407.5,112.307 411.331,114.307 412.488,105.499C412.766,103.389 411.989,99.942 411.212,98.658C409.436,95.723 406.804,96.44 404.5,96.497C396.24,96.301 274.693,96.379 262.503,96.435C261.152,96.427 253.609,96.561 252.807,96.021C251.758,95.315 252.029,87.394 252.011,85.517C252.154,39.787 251.643,38.777 253.496,38.486C255.602,38.156 360.217,38.394 369.497,38.415Z" style="fill:rgb(254,254,254);"/>
            <path d="M314.502,186.59C340.398,186.627 340.434,186.639 351.496,186.551C414.938,186.933 432.722,182.687 453.248,206.703C465.829,221.424 473.486,260.87 457.881,291.69C454.535,297.062 444.579,314.437 416.469,318.246C408.703,319.298 408.68,318.828 318.504,318.583C313.383,318.593 260.191,318.695 254.495,318.602C251.498,318.553 252.046,316.889 252.046,285.5C252.046,267.188 252.067,267.259 251.988,264.501C251.821,258.765 254.716,260.959 260.48,260.743C272.391,260.816 406.709,261.639 409.378,260.266C413.549,258.119 414.072,244.761 407.492,244.634C405.139,244.588 266.643,244.601 256.503,244.621C253.531,244.276 252.167,245.532 252.065,242.555C252.058,242.37 252.009,188.784 252.075,188.43C252.529,185.983 255.52,186.605 272.5,186.605C286.501,186.6 300.502,186.595 314.502,186.59Z" style="fill:rgb(254,254,254);"/>
            <path d="M94.506,260.629C138.837,260.621 183.169,260.613 227.5,260.605C233.218,260.607 235.74,258.765 236.018,264.55C235.879,312.478 236.219,316.475 235.739,317.637C235.351,318.578 234.947,318.701 182.495,318.578C180.175,318.588 180.24,318.562 153.494,318.641C149.095,318.619 121.695,318.476 98.5,318.606C88.279,318.662 91.872,332.147 94.767,334.044C96.409,335.121 163.327,334.616 167.471,334.353C172.169,334.645 172.067,334.605 215.5,334.605C233.99,334.605 234.995,333.53 238.778,338.28C242.106,342.457 276.501,385.645 280.042,390.759C282.437,394.216 278.02,392.716 227.504,392.572C217.903,392.612 153.439,392.885 107.493,392.528C99.331,392.618 71.921,395.698 52.714,374.312C30.28,349.334 24.57,263.55 94.506,260.629Z" style="fill:rgb(254,254,254);"/>
            <path d="M334.48,334.743C417.063,335.305 431.805,330.405 453.14,354.793C467.254,370.926 466.346,402.233 466.222,406.498C465.362,436.172 451.54,448.697 450.214,450.279C429.654,469.176 423.998,466.806 350.5,466.806C322.807,466.806 310.622,466.817 301.513,466.768C253.188,466.914 252.646,466.841 252.216,465.623C251.642,463.997 252.04,421.333 252.076,417.482C252.182,411.054 250.797,410.009 253.411,409.24C255.218,408.708 395.415,409.684 408.555,408.758C409.283,408.418 413.45,406.48 412.468,399.504C411.253,390.865 406.056,392.817 392.512,392.782C389.951,392.787 299.898,392.888 298.464,392.728C295.707,392.422 296.22,391.391 273.045,361.854C254.808,338.61 250.638,334.632 254.522,334.695C271.259,334.964 332.057,334.758 334.48,334.743Z" style="fill:rgb(254,254,254);"/>
            <path d="M107.493,392.528C153.439,392.885 217.903,392.612 227.504,392.572C229.502,395.853 250.419,416.17 252.076,417.482C252.04,421.333 251.642,463.997 252.216,465.623C252.646,466.841 253.188,466.914 301.513,466.768L301.778,467.5C317.049,483.021 333.59,498.597 336.528,502.843C224.363,502.952 224.419,502.713 170.532,502.887C168.162,498.592 85.607,417.314 85.5,417.224L84.5,416.5L84.946,415.962C106.74,395.162 106.896,395.06 107.493,392.528Z" style="fill:rgb(28,203,204);"/>
            <path d="M457.881,291.69L458.5,292.982C459.212,293.681 459.101,293.679 459.756,294.323C459.995,294.558 459.979,294.539 462.761,297.239C466.427,300.906 493.761,328.239 493.761,328.239L496.061,330.5C499.198,333.652 499.008,333.715 502.349,336.51C502.446,346.755 503.436,452.156 501.941,464.576C501.764,465.544 501.587,466.512 501.41,467.48C501.171,468.384 499.007,476.568 497.47,478.484C496.747,479.386 497.511,479.868 496.376,480.428C496.376,480.428 496.123,481.206 496.101,481.274C495.209,482.369 495.248,482.321 494.456,483.468C492.321,486.351 492.348,486.317 492.318,486.35C491.578,487.214 491.607,487.163 491.181,488.214C490.87,488.576 490.559,488.939 490.249,489.301L488.936,489.902C486.473,486.018 486.454,486.11 450.214,450.279C451.54,448.697 465.362,436.172 466.222,406.498C466.346,402.233 467.254,370.926 453.14,354.793C431.805,330.405 417.063,335.305 334.48,334.743C326.616,326.423 326.458,326.703 318.504,318.583C408.68,318.828 408.703,319.298 416.469,318.246C444.579,314.437 454.535,297.062 457.881,291.69Z" style="fill:rgb(14,102,102);fill-opacity:1;"/>
            <path d="M463.037,131.405L463.657,132.5C465.158,133.946 466.66,135.393 468.161,136.839C477.46,146.186 477.394,146.116 486.778,155.5C493.095,161.818 493.039,161.741 498.161,166.839C499.518,168.062 500.875,169.286 502.232,170.509C502.405,205.848 502.143,318.371 502.349,336.51C499.008,333.715 499.198,333.652 496.061,330.5C496.061,330.5 477.061,311.5 474.061,308.5C467.797,302.236 467.855,302.312 462.761,297.239C459.979,294.539 459.995,294.558 459.756,294.323C459.101,293.679 459.212,293.681 458.5,292.982L457.881,291.69C473.486,260.87 465.829,221.424 453.248,206.703C432.722,182.687 414.938,186.933 351.496,186.551C349.773,184.186 349.597,184.467 347.759,182.24C345.426,179.907 343.093,177.573 340.761,175.239C335.986,170.961 336.585,170.504 336.488,170.345C350.063,170.418 349.954,170.394 387.5,170.394C409.363,170.394 416.756,170.947 427.516,167.554C456.601,158.381 462.833,131.938 463.037,131.405Z" style="fill:rgb(7,51,51);"/>
            <path d="M2.216,168.51L3.737,169.5C87.679,252.975 88.033,252.631 94.506,260.629C24.57,263.55 30.28,349.334 52.714,374.312C71.921,395.698 99.331,392.618 107.493,392.528C106.896,395.06 106.74,395.162 84.946,415.962C81.932,413.629 82.006,413.598 51.039,382.5L47.751,379.249C33.162,364.666 18.574,350.083 3.985,335.5L2.229,334.504C2.224,279.173 2.22,223.841 2.216,168.51Z" style="fill:rgb(44,9,21);"/>
            <path d="M84.5,416.5L85.5,417.224C85.607,417.314 168.162,498.592 170.532,502.887C39.116,502.883 39.042,503.075 33.48,501.553C29.782,500.542 14.598,493.451 13.553,487.508C19.215,481.814 72.356,428.371 84.5,416.5Z" style="fill:rgb(34,253,254);fill-opacity:1;"/>
            <path d="M250.516,250.525C255.629,255.581 255.56,255.538 260.48,260.743C254.716,260.959 251.821,258.765 251.988,264.501C252.067,267.259 252.046,267.188 252.046,285.5C252.046,316.889 251.498,318.553 254.495,318.602C260.191,318.695 313.383,318.593 318.504,318.583C326.458,326.703 326.616,326.423 334.48,334.743C332.057,334.758 271.259,334.964 254.522,334.695C250.638,334.632 254.808,338.61 273.045,361.854C296.22,391.391 295.707,392.422 298.464,392.728C299.898,392.888 389.951,392.787 392.512,392.782L393.515,393.5C394.588,394.836 394.891,394.516 408.555,408.758C395.415,409.684 255.218,408.708 253.411,409.24C250.797,410.009 252.182,411.054 252.076,417.482C250.419,416.17 229.502,395.853 227.504,392.572C278.02,392.716 282.437,394.216 280.042,390.759C276.501,385.645 242.106,342.457 238.778,338.28C234.995,333.53 233.99,334.605 215.5,334.605C172.067,334.605 172.169,334.645 167.471,334.353L167.714,333.964C172.478,327.346 179.356,322.265 182.495,318.578C234.947,318.701 235.351,318.578 235.739,317.637C236.219,316.475 235.879,312.478 236.018,264.55C237.132,263.793 237.026,263.753 250.516,250.525Z" style="fill:rgb(23,153,154);"/>
            <path d="M168.492,2.355C204.28,2.238 298.435,2.381 333.492,2.293L334.734,3.5C366.974,35.674 367.081,35.496 369.497,38.415C360.217,38.394 255.602,38.156 253.496,38.486C251.643,38.777 252.154,39.787 252.011,85.517C248.715,83.501 248.965,83.165 169.5,3.996L168.492,2.355Z" style="fill:rgb(178,35,84);"/>
            <path d="M2.229,334.504L3.985,335.5C18.574,350.083 33.162,364.666 47.751,379.249L51.039,382.5C82.006,413.598 81.932,413.629 84.946,415.962L84.5,416.5C72.356,428.371 19.215,481.814 13.553,487.508C0.301,472.586 2.224,461.659 2.224,429.5C2.226,397.835 2.227,366.169 2.229,334.504Z" style="fill-opacity:1;"/>
            <path d="M450.214,450.279C486.454,486.11 486.473,486.018 488.936,489.902C487.09,491.709 487.378,491.868 485.554,493.582C485.195,493.879 484.836,494.175 484.478,494.472C483.476,495.077 483.479,494.932 482.582,495.617C482.009,496.055 482.107,496.051 481.539,496.57C480.876,496.912 480.213,497.254 479.55,497.595C479.227,497.821 479.168,497.509 475.306,500.101C474.558,500.603 468.08,502.177 467.445,502.332C463.489,503.293 398.762,502.578 336.528,502.843C333.59,498.597 317.049,483.021 301.778,467.5L301.513,466.768C310.622,466.817 322.807,466.806 350.5,466.806C423.998,466.806 429.654,469.176 450.214,450.279Z" style="fill:rgb(21,152,153);fill-opacity:1;"/>
            <path d="M487.262,13.555C504.35,31.765 502.225,38.46 502.225,75.5C502.227,107.17 502.23,138.839 502.232,170.509C500.875,169.286 499.518,168.062 498.161,166.839C494.494,163.173 490.827,159.506 487.161,155.839C480.827,149.506 474.494,143.173 468.161,136.839C466.66,135.393 465.158,133.946 463.657,132.5L463.037,131.405C474.253,81.952 456.355,61.657 448.257,52.596C452.498,48.519 484.482,16.582 487.262,13.555Z" style="fill-opacity:1;"/>
            <path d="M333.492,2.293C349.251,2.211 450.304,2.207 465.517,2.303C466.942,2.85 466.854,3.03 468.367,2.866C468.756,3.011 469.146,3.155 469.536,3.3C470.948,3.862 470.857,4.027 472.363,3.842L472.587,4.247C473.59,4.594 474.594,4.94 475.597,5.287L476.488,5.524C477.423,6.635 477.411,6.518 478.684,7.158C479.662,7.532 480.64,7.906 481.619,8.28L482.502,8.497C482.754,10.142 482.936,10.168 484.54,10.451C484.899,10.742 485.258,11.033 485.617,11.324C485.813,11.565 485.52,12.01 485.717,12.251C486.366,13.047 486.668,12.65 487.262,13.555C484.482,16.582 452.498,48.519 448.257,52.596C447.612,52.181 447.647,52.261 447.076,51.838C426.852,36.824 423.681,38.285 369.497,38.415C367.081,35.496 366.974,35.674 334.734,3.5L333.492,2.293Z" style="fill:rgb(222,44,105);fill-opacity:1;"/>
            <path d="M256.503,244.621C266.643,244.601 405.139,244.588 407.492,244.634C414.072,244.761 413.549,258.119 409.378,260.266C406.709,261.639 272.391,260.816 260.48,260.743C255.56,255.538 255.629,255.581 250.516,250.525C253.516,247.566 253.471,247.61 256.503,244.621Z" style="fill:rgb(14,102,102);"/>
            <path d="M262.503,96.435C274.693,96.379 396.24,96.301 404.5,96.497C403.503,97.332 388.986,111.869 388.505,112.432C370.157,112.343 293.633,112.377 277.497,112.422C274.666,108.701 274.512,108.963 271.268,105.732C264.045,98.535 264.206,98.474 263.5,97.949L262.503,96.435Z" style="fill:rgb(178,36,85);"/>
            <path d="M153.494,318.641L153.751,319.5L154.764,320.5C155.914,321.455 162.206,326.679 167.714,333.964L167.471,334.353C163.327,334.616 96.409,335.121 94.767,334.044C91.872,332.147 88.279,318.662 98.5,318.606C121.695,318.476 149.095,318.619 153.494,318.641Z" style="fill:rgb(44,9,21);"/>
            <path d="M330.497,170.414L336.488,170.345C336.585,170.504 335.986,170.961 340.761,175.239C343.093,177.573 345.426,179.907 347.759,182.24C349.597,184.467 349.773,184.186 351.496,186.551C340.434,186.639 340.398,186.627 314.502,186.59C316.955,184.009 316.858,183.996 319.469,181.5C322.789,178.18 322.701,178.239 325.949,174.949C329.376,171.575 329.353,171.639 330.497,170.414Z" style="fill:rgb(14,101,101);"/>
            <path d="M404.5,96.497C406.804,96.44 409.436,95.723 411.212,98.658C411.989,99.942 412.766,103.389 412.488,105.499C411.331,114.307 407.5,112.307 388.505,112.432C388.986,111.869 403.503,97.332 404.5,96.497Z" style="fill:rgb(10,53,53);"/>
            <path d="M153.494,318.641C180.24,318.562 180.175,318.588 182.495,318.578C179.356,322.265 172.478,327.346 167.714,333.964C162.206,326.679 155.914,321.455 154.764,320.5L153.751,319.5L153.494,318.641Z" style="fill:rgb(88,18,42);"/>
            <path d="M392.512,392.782C406.056,392.817 411.253,390.865 412.468,399.504C413.45,406.48 409.283,408.418 408.555,408.758C394.891,394.516 394.588,394.836 393.515,393.5L392.512,392.782Z" style="fill:rgb(17,104,104);"/>
            <path d="M492.318,486.35C491.939,486.972 491.56,487.593 491.181,488.214C491.607,487.163 491.578,487.214 492.318,486.35Z" style="fill:rgb(13,97,97);fill-opacity:0.3;"/>
            <path d="M481.539,496.57C480.876,496.912 480.213,497.254 479.55,497.595C480.213,497.254 480.876,496.912 481.539,496.57Z" style="fill:rgb(16,120,121);fill-opacity:0.24;"/>
            <path d="M501.941,464.576C502.016,466.159 501.943,466.063 501.41,467.48C501.587,466.512 501.764,465.544 501.941,464.576Z" style="fill:rgb(13,97,97);fill-opacity:0.4;"/>
            <path d="M468.161,136.839C474.494,143.173 480.827,149.506 487.161,155.839L486.778,155.5C477.394,146.116 477.46,146.186 468.161,136.839Z" style="fill:rgb(3,27,27);"/>
            <path d="M39.522,2.665C38.513,2.933 37.503,3.202 36.493,3.47C37.503,3.202 38.513,2.933 39.522,2.665Z" style="fill:rgb(120,23,57);fill-opacity:0.37;"/>
            <path d="M486.778,155.5L487.161,155.839C490.827,159.506 494.494,163.173 498.161,166.839C493.039,161.741 493.095,161.818 486.778,155.5Z" style="fill:rgb(3,26,26);"/>
            <path d="M462.761,297.239C467.855,302.312 467.797,302.236 474.061,308.5L473.761,308.239C470.094,304.573 466.427,300.906 462.761,297.239Z" style="fill:rgb(10,76,76);"/>
            <path d="M325.949,174.949C322.701,178.239 322.789,178.18 319.469,181.5C322.77,178.155 322.683,178.214 325.949,174.949Z" style="fill:rgb(72,64,82);"/>
            <path d="M482.761,317.239L483.061,317.5C486.061,320.5 489.061,323.5 492.061,326.5L491.761,326.239C488.761,323.239 485.761,320.239 482.761,317.239Z" style="fill:rgb(10,76,76);"/>
            <path d="M473.761,308.239L474.061,308.5C477.061,311.5 480.061,314.5 483.061,317.5L482.761,317.239C479.761,314.239 476.761,311.239 473.761,308.239Z" style="fill:rgb(10,76,76);"/>
            <path d="M340.761,175.239C343.093,177.573 345.426,179.907 347.759,182.24C345.426,179.907 343.093,177.573 340.761,175.239Z" style="fill:rgb(10,74,74);"/>
            <path d="M47.751,379.249L51.039,382.5L47.751,379.249Z" style="fill:rgb(21,4,10);"/>
            <path d="M491.761,326.239L492.061,326.5L494.061,328.5L493.761,328.239L491.761,326.239Z" style="fill:rgb(10,76,76);"/>
            <path d="M493.761,328.239L494.061,328.5L496.061,330.5L493.761,328.239Z" style="fill:rgb(10,76,76);"/>
        </g>
    </g>
</svg>
