<svg width="32" height="32" viewBox="0 0 32 32" fill="none" xmlns="http://www.w3.org/2000/svg">
<path d="M3.43977 0.029806C3.82786 -0.0120301 4.47495 0.00385401 4.88171 0.00408426L7.27329 0.00672472L15.037 0.00685109L24.061 0.00682502L26.7593 0.00569222C27.281 0.00430326 27.9871 -0.0159592 28.4935 0.0294793C29.1321 0.085309 29.7469 0.298278 30.283 0.649352C31.9531 1.74243 31.9995 3.17169 31.9967 4.95937L31.9942 7.12586L31.9951 15.2261L31.9962 24.0837L31.9961 26.8395C31.996 27.3274 32.0142 28.0087 31.9725 28.4785C31.9204 29.1253 31.7009 29.7473 31.3356 30.2838C30.6747 31.2668 29.7755 31.7244 28.645 31.9488C28.0916 32.0129 27.4191 31.9977 26.8564 31.9976L24.3924 31.9965H16.1894L7.8147 31.9966L5.28891 31.9981C4.68547 31.9991 4.11413 32.0114 3.51091 31.9579C1.81566 31.8077 0.336999 30.5213 0.0736764 28.8244C-0.0202808 28.2189 0.00195731 27.6356 0.00306549 27.0272L0.00599201 24.8566L0.0054975 17.0808L0.00377563 7.93911L0.00345219 5.10324C0.00353028 4.64073 -0.0143308 3.87646 0.0317738 3.42798C0.103077 2.74345 0.35647 2.09045 0.765682 1.53669C1.45249 0.59985 2.32312 0.203609 3.43977 0.029806ZM6.09215 21.296C7.25373 21.3112 8.41542 21.3162 9.57711 21.3111C11.3516 21.3099 13.8733 21.4859 14.9001 19.6636C15.5678 18.2084 15.2504 16.3882 13.6881 15.6811C13.572 15.6287 13.4537 15.5815 13.3334 15.5395C13.9143 15.2849 14.3836 14.8928 14.6171 14.2886C14.8515 13.6821 14.8296 12.8084 14.5562 12.2192C13.7893 10.5665 11.6393 10.6644 10.1234 10.665L7.41683 10.6693C7.02979 10.6704 6.46346 10.6966 6.09669 10.674C6.15634 12.6932 6.10301 14.9728 6.10234 17.0106L6.10383 19.7445C6.10439 20.2127 6.12261 20.8445 6.09215 21.296ZM19.0454 10.6709C19.0526 11.1679 19.0519 11.6649 19.0433 12.1618C20.2303 12.1891 21.4178 12.1971 22.6052 12.1857C23.0921 12.184 23.8856 12.155 24.353 12.1889C24.4014 11.9747 24.3665 10.972 24.387 10.6752C23.1866 10.6663 21.9861 10.6641 20.7856 10.6687C20.2916 10.6696 19.5074 10.7007 19.0454 10.6709ZM21.2289 12.9951C18.7558 13.2646 17.4 15.0906 17.5534 17.5745C17.6015 18.3548 18.0568 19.2844 18.53 19.8945C20.084 21.7758 23.6009 21.7908 25.1087 19.8475C25.4076 19.4624 25.5635 19.102 25.7829 18.6805C25.5194 18.684 25.2557 18.6835 24.9922 18.679C24.6306 18.6818 24.159 18.6988 23.8058 18.6776C23.0863 19.7041 21.8681 20.0062 20.774 19.3158C20.1346 18.9123 19.9503 18.2153 19.8763 17.5084C21.8527 17.5355 23.9453 17.4593 25.9014 17.5137C25.8913 17.0439 25.9079 16.458 25.8181 16.0068C25.4287 14.0512 23.7962 12.9214 21.8603 12.967C21.6497 12.9739 21.4392 12.9832 21.2289 12.9951Z" fill="#282B33"/>
<path d="M9.05867 16C9.84734 16.0394 10.6938 15.9935 11.4998 16.0185C12.8672 16.061 13.5443 17.6466 12.4696 18.613C11.577 19.2092 10.0685 18.9208 9.01468 18.9862C9.01523 18.559 8.9606 16.2308 9.05867 16Z" fill="#282B33"/>
<path d="M9.03107 12.0011C9.54278 12.0342 10.0725 11.9796 10.59 12.0091C11.2156 12.0446 12.0491 12.3014 11.9977 13.5307C11.9783 13.9971 11.8687 14.2532 11.648 14.5579C11.0307 15.241 9.79536 14.9101 9.01233 14.9784C9.00907 14.3577 8.97717 12.5418 9.03107 12.0011Z" fill="#282B33"/>
<path d="M21.8022 14.0085C23.1415 13.9053 23.648 14.7552 24 15.9674C23.3935 15.9527 22.7581 15.9659 22.1493 15.9695C21.6616 15.9685 20.4197 15.9323 20 16C20.2707 14.8883 20.6756 14.2278 21.8022 14.0085Z" fill="#282B33"/>
</svg>
