<svg width="20" height="21" viewBox="0 0 20 21" fill="none" xmlns="http://www.w3.org/2000/svg">
<path fill-rule="evenodd" clip-rule="evenodd" d="M17.8878 3.94588C17.8041 4.05681 11.0171 13.5984 10.8913 13.7662C10.2054 14.6808 10.0871 15.3124 9.2404 14.527C7.12399 12.5639 6.69378 12.4249 7.26293 11.8168C8.718 10.2616 17.2971 1.61324 18.1735 0.729666C18.421 0.480002 19.1241 -0.323014 19.7073 0.142428C20.5008 0.775377 19.1559 2.07996 17.8878 3.94588Z" fill="#282B33"/>
<path fill-rule="evenodd" clip-rule="evenodd" d="M1.46847 20.969C0.375946 20.9719 0.201705 21.0234 0.12194 20.877C0.0134061 20.6775 -0.0689739 20.657 0.0840192 20.4918C1.63585 18.8154 2.30111 18.3445 3.56265 15.7843C5.52181 11.8079 9.92886 15.3364 7.79382 18.3532C5.99321 20.8974 2.85522 20.9495 1.46847 20.969Z" fill="#282B33"/>
</svg>
