<svg width="71" height="81" viewBox="0 0 71 81" fill="none" xmlns="http://www.w3.org/2000/svg">
<g clip-path="url(#clip0_36_485)">
<path d="M68.258 21.8376C70.0855 19.778 71 16.6558 71 12.4718C71 8.28782 70.0862 5.14941 68.258 3.08981C66.4304 1.03021 64.1322 0 61.3511 0H35.5V10.9265H61.3511C61.6124 10.9265 61.8083 11.1039 61.939 11.4578C62.0696 11.8117 62.1349 12.1495 62.1349 12.4718C62.1349 12.7942 62.0696 13.1319 61.939 13.4858C61.8083 13.8398 61.6124 14.0171 61.3511 14.0171H35.5V24.9274H61.3511C64.1187 24.9274 66.4297 23.8972 68.258 21.8376Z" fill="#282B33"/>
<path d="M9.6489 42.0369C6.86783 42.0369 4.57027 43.0671 2.74202 45.1267C0.91377 47.1863 0 50.3247 0 54.5087C0 58.6927 0.91377 61.8149 2.74202 63.8745C4.56956 65.9341 6.88061 66.9643 9.6489 66.9643H35.5V66.9999H61.3511C61.6124 66.9999 61.8083 67.1773 61.939 67.5312C62.0696 67.8852 62.1349 68.2229 62.1349 68.5452C62.1349 68.8676 62.0696 69.2053 61.939 69.5593C61.8083 69.9132 61.6124 70.0906 61.3511 70.0906H35.5V81.0009H61.3511C64.1187 81.0009 66.4297 79.9707 68.258 77.9111C70.0855 75.8514 71 72.7292 71 68.5452C71 64.3612 70.0862 61.2228 68.258 59.1632C66.4304 57.1036 64.1322 56.0734 61.3511 56.0734H35.5V56.054H9.6489C9.38762 56.054 9.19166 55.8766 9.06102 55.5227C8.93038 55.1688 8.86506 54.831 8.86506 54.5087C8.86506 54.1863 8.93038 53.8486 9.06102 53.4947C9.19166 53.1407 9.38762 52.9634 9.6489 52.9634H32.7892V42.0369H9.6489Z" fill="#282B33"/>
<path d="M61.3511 52.9642C64.1187 52.9642 66.4297 51.934 68.258 49.8744C70.0855 47.8148 71 44.6926 71 40.5086C71 36.3246 70.0862 33.1862 68.258 31.1266C66.4304 29.0669 64.1322 28.0367 61.3511 28.0367H35.5V38.9632H61.3511C61.6124 38.9632 61.8083 39.1406 61.939 39.4946C62.0696 39.8485 62.1349 40.1862 62.1349 40.5086C62.1349 40.8309 62.0696 41.1686 61.939 41.5226C61.8083 41.8765 61.6124 42.0539 61.3511 42.0539H35.5V52.9642" fill="#282B33"/>
</g>
<defs>
<clipPath id="clip0_36_485">
<rect width="71" height="81" fill="white"/>
</clipPath>
</defs>
</svg>
