<svg width="22" height="20" viewBox="0 0 22 20" fill="none" xmlns="http://www.w3.org/2000/svg">
<path fill-rule="evenodd" clip-rule="evenodd" d="M10.9774 18.7637C16.6006 18.7586 16.9231 18.6591 16.9877 19.2712C17.0714 20.0691 16.5244 19.9407 11.3529 19.9411C4.3379 19.9411 4.33152 19.8775 4.15093 19.7658C3.43756 19.3252 0.61753 16.3728 0.323549 16.0646C-0.415719 15.2912 0.112922 15.0726 1.89858 13.2882C2.95623 12.2315 14.7849 0.409732 15.1772 0.135272C15.7536 -0.26791 15.8816 0.0390995 19.6057 3.74319C21.3017 5.42953 21.8953 5.65368 20.9852 6.57064C20.1089 7.4532 13.9721 13.6356 9.94231 17.5128C9.89425 17.5586 9.48575 17.9518 9.3382 18.082C9.0262 18.3576 8.97476 18.4641 9.30215 18.7112C9.40841 18.7915 9.43582 18.8118 10.9774 18.7637ZM10.2735 12.1967C9.79775 11.7336 9.23458 11.1788 9.14447 11.09C7.87994 9.84344 7.64602 9.296 6.69162 10.2348C4.43101 12.4589 4.45504 12.4663 2.20232 14.7005C1.47356 15.4233 1.55203 15.6419 2.2883 16.3654C4.26994 18.3121 4.45091 18.7342 5.352 18.7586C6.79487 18.7974 7.03366 18.7293 7.60661 18.1704C7.90847 17.876 10.7961 15.0596 11.3349 14.4467C12.0388 13.6459 11.5868 13.4843 10.2735 12.1967Z" fill="#282B33"/>
</svg>
