<svg width="19" height="19" viewBox="0 0 19 19" fill="none" xmlns="http://www.w3.org/2000/svg">
<path fill-rule="evenodd" clip-rule="evenodd" d="M18.9806 2.02537C18.8407 3.39369 18.6698 3.37529 16.3247 5.69155C15.548 6.45834 15.1669 6.6467 15.9367 7.41891C17.1004 8.58624 17.7376 8.7912 16.771 9.73914C15.9112 10.5821 15.7364 11.1179 14.8755 10.2721C14.2292 9.63738 14.0201 9.24551 13.1352 10.1144C4.60693 18.4889 4.70311 18.7317 3.88268 18.8357C3.67502 18.8617 1.06945 18.6805 0.656684 18.5167C0.237722 18.3507 0.08178 17.8888 0.00272379 15.3773C-0.0362578 14.1313 0.289082 14.1862 4.56868 9.92462C8.89601 5.61541 8.9951 5.69444 9.24393 5.22822C9.73357 4.31132 7.30322 4.00857 8.58961 2.72252C9.51861 1.79334 9.72993 1.25496 10.6648 2.1762C11.8331 3.32766 12.0313 3.88985 12.8973 3.01841C15.6107 0.287179 16.0246 -0.248317 17.4028 0.0905162C17.931 0.22042 18.3117 0.607246 18.3751 0.671837C19.0112 1.31739 18.9613 1.93516 18.9806 2.02537ZM1.18821 16.1142C1.26763 17.0513 1.13721 17.4435 2.42616 17.5861C4.31804 17.795 4.24299 17.3241 5.59787 15.9955C6.15345 15.4506 12.2608 9.46129 12.51 9.15132C13.0186 8.51768 12.5009 8.23189 10.8921 6.63948C10.1281 5.88352 9.89241 6.29415 8.13933 8.05147C1.49606 14.7109 1.27163 14.6239 1.17436 15.3701C1.16671 15.4293 1.17546 15.4253 1.18821 16.1142Z" fill="#282B33"/>
</svg>
