<svg width="20" height="18" viewBox="0 0 20 18" fill="none" xmlns="http://www.w3.org/2000/svg">
<path d="M13 17.0001H2.6C2.03995 17.0001 1.75992 17.0001 1.54601 16.8911C1.35785 16.7953 1.20487 16.6423 1.10899 16.4541C1 16.2402 1 15.9602 1 15.4001V4.20012C1 3.08002 1 2.51996 1.21799 2.09214C1.40973 1.71582 1.71569 1.40986 2.09202 1.21811C2.51984 1.00012 3.0799 1.00012 4.2 1.00012H5.67452C6.1637 1.00012 6.40829 1.00012 6.63846 1.05538C6.84254 1.10438 7.03763 1.18518 7.21657 1.29484C7.4184 1.41853 7.59135 1.59148 7.93726 1.93738L8.06274 2.06286C8.40865 2.40877 8.5816 2.58172 8.78343 2.7054C8.96237 2.81506 9.15746 2.89587 9.36154 2.94486C9.59171 3.00012 9.8363 3.00012 10.3255 3.00012H12.8C13.9201 3.00012 14.4802 3.00012 14.908 3.21811C15.2843 3.40986 15.5903 3.71582 15.782 4.09214C16 4.51996 16 5.08002 16 6.20012V9.50012" stroke="#EE52D9" stroke-width="2" stroke-linecap="round" stroke-linejoin="round"/>
<path d="M16.5733 7.00012C17.726 7.00012 18.3022 7.0004 18.6748 7.24231C19.0008 7.45394 19.2318 7.78361 19.3193 8.16223C19.4193 8.595 19.2229 9.13683 18.8291 10.2198L16.7656 15.8937C16.4897 16.6523 16.3516 17.0318 16.1084 17.3116C15.8936 17.5588 15.6211 17.7499 15.3154 17.8673C14.9695 18 14.5657 18.0001 13.7588 18.0001H6.85255C4.54722 18.0001 3.3946 17.9995 2.64942 17.5157C1.9974 17.0924 1.53539 16.4324 1.36036 15.6749C1.16039 14.8093 1.55398 13.7261 2.34181 11.5597L3.23341 9.10657C3.50928 8.34794 3.6476 7.96844 3.89063 7.6886C4.10544 7.4414 4.37788 7.25033 4.6836 7.13293C5.02973 7.00003 5.43371 7.00012 6.24122 7.00012H16.5733Z" fill="#EE52D9"/>
</svg>
