<svg width="24" height="21" viewBox="0 0 24 21" fill="none" xmlns="http://www.w3.org/2000/svg">
<path d="M0 4C0 2.11438 0 1.17157 0.585786 0.585786C1.17157 0 2.11438 0 4 0H7.34315C8.16065 0 8.5694 0 8.93694 0.152241C9.30448 0.304482 9.59351 0.593512 10.1716 1.17157L12.3284 3.32843C12.9065 3.90649 13.1955 4.19552 13.5631 4.34776C13.9306 4.5 14.3394 4.5 15.1569 4.5H20C21.8856 4.5 22.8284 4.5 23.4142 5.08579C24 5.67157 24 6.61438 24 8.5V17C24 18.8856 24 19.8284 23.4142 20.4142C22.8284 21 21.8856 21 20 21H4C2.11438 21 1.17157 21 0.585786 20.4142C0 19.8284 0 18.8856 0 17V4Z" fill="white"/>
<path d="M0 4C0 2.11438 0 1.17157 0.585786 0.585786C1.17157 0 2.11438 0 4 0H7.34315C8.16065 0 8.5694 0 8.93694 0.152241C9.30448 0.304482 9.59351 0.593512 10.1716 1.17157L12.3284 3.32843C12.9065 3.90649 13.1955 4.19552 13.5631 4.34776C13.9306 4.5 14.3394 4.5 15.1569 4.5H20C21.8856 4.5 22.8284 4.5 23.4142 5.08579C24 5.67157 24 6.61438 24 8.5V17C24 18.8856 24 19.8284 23.4142 20.4142C22.8284 21 21.8856 21 20 21H4C2.11438 21 1.17157 21 0.585786 20.4142C0 19.8284 0 18.8856 0 17V4Z" fill="#EE52D9"/>
</svg>
