<svg width="19" height="24" viewBox="0 0 19 24" fill="none" xmlns="http://www.w3.org/2000/svg">
<path fill-rule="evenodd" clip-rule="evenodd" d="M0.0035996 10.2124C0.00790442 10.1603 -0.0881407 9.37544 0.485394 8.84334C0.878126 8.47883 1.3765 8.39981 1.46127 8.38618C1.82387 8.32861 3.50606 8.06187 5.11242 11.2429C5.17964 11.3758 5.77172 11.9965 5.70483 10.8822C5.52866 7.94332 5.6419 5.55293 5.66376 5.08997C5.66972 4.95916 5.82867 2.81915 7.7559 2.56706C8.39136 2.48394 8.38142 2.58852 8.4354 2.57966C9.02483 2.48496 8.87185 2.2707 8.99139 1.66807C9.29107 0.160324 11.2405 -0.497152 12.3382 0.421942C13.13 1.08486 13.1393 1.82987 13.1926 2.00667C13.4316 2.79938 13.7886 2.46622 14.4181 2.57864C16.4251 2.93804 15.9592 5.4446 16.147 5.71236C16.443 6.13444 18.817 5.07771 18.9431 7.83022C19.3862 17.4926 17.1159 20.3228 16.444 21.1605C14.8532 23.1434 13.3446 23.511 11.4302 23.9137C8.89966 24.4458 4.98957 22.6178 1.89241 15.6217C0.190687 11.7774 0.0582377 10.6689 0.0035996 10.2124ZM8.94603 5.44017C8.92484 5.20716 8.93079 4.97176 8.90927 4.73875C8.78542 3.38873 7.41052 3.32911 6.90388 4.47168C6.64459 5.05761 6.66479 11.5945 6.79957 14.3C6.83268 14.9677 6.38599 14.9394 6.04094 14.3749C5.07865 12.8028 5.00148 12.8702 3.97627 11.3441C2.30799 8.86105 1.0576 9.2678 1.03045 10.2049C1.01853 10.6096 3.09379 16.456 5.0548 19.1165C5.71939 20.0183 8.04335 23.4419 11.4081 22.7759C11.7236 22.7135 17.8149 22.843 17.9097 11.5689C17.9385 8.12318 18.0378 6.75852 17.058 6.93123C15.6953 7.1714 16.1387 9.48241 16.0582 10.8907C16.0092 11.7498 15.345 11.6217 15.1642 11.4511C14.7774 11.0862 15.0675 6.66143 14.9638 4.76397C14.8844 3.30426 13.7476 3.67828 13.528 3.87825C12.9982 4.36028 13.3015 7.79853 13.2177 9.88063C13.183 10.7418 12.5723 10.8382 12.2535 10.302C12.0611 9.9784 12.2412 3.57677 12.1551 2.36812C12.0458 0.832438 10.4905 0.864451 10.1193 1.70758C9.80268 2.42671 10.0335 7.90346 9.96627 9.85918C9.96396 9.92731 9.94341 10.5293 9.43048 10.5109C8.8384 10.4897 8.94471 10.1671 8.94603 5.44017Z" fill="#282B33"/>
</svg>
