<svg width="17" height="17" viewBox="0 0 17 17" fill="none" xmlns="http://www.w3.org/2000/svg">
<g clip-path="url(#clip0_39_315)">
<path fill-rule="evenodd" clip-rule="evenodd" d="M10.271 8.00648C14.2351 8.00519 14.4593 8.09333 14.576 7.55254C14.6358 7.27488 14.3867 6.51906 14.7925 6.37119C15.1248 6.2498 15.0845 6.44706 15.7542 7.14057C16.1521 7.55222 16.1658 7.52962 16.5595 7.93997C17.3255 8.73841 16.5774 8.93535 15.4626 10.1771C15.0919 10.5894 15.0404 10.888 14.6422 10.5067C14.324 10.2023 15.1814 9.03156 13.7922 9.01058C9.37008 8.94375 9.31219 8.9021 9.05666 9.18493C8.89036 9.36896 8.91306 9.39672 8.91275 13.6453C8.91243 15.1191 9.56549 14.6529 10.2499 14.7129C10.3075 14.7181 10.602 14.9858 10.5173 15.2173C10.4616 15.3696 10.3737 15.2944 9.05378 16.6146C8.17365 17.495 7.9776 16.6979 6.74376 15.5908C6.39867 15.2809 6.16521 15.3154 6.35838 14.8938C6.62127 14.3207 7.84456 15.3868 7.90757 13.9646C7.96705 12.625 7.91396 10.1099 7.90693 9.77479C7.88742 8.83688 7.39906 9.01122 5.15396 9.01122C2.67955 9.01122 2.19439 8.84463 2.21646 9.7664C2.23053 10.3527 2.34726 10.4024 2.13426 10.5971C1.71179 10.9833 1.74889 10.4873 0.505766 9.29825C-0.595038 8.24475 0.317394 8.04587 1.19529 7.06244C1.7265 6.4674 1.66318 6.33245 1.96316 6.34569C2.64277 6.37539 1.59602 7.89025 2.8999 7.98614C3.30831 8.01617 7.34949 8.00583 7.37571 8.00164C8.00287 7.90575 7.90596 7.62195 7.90469 3.31338C7.90437 2.4762 7.91492 2.21242 7.07733 2.24664C6.51925 2.26924 6.52404 2.28474 6.46904 2.25504C6.22918 2.12622 6.40507 1.73394 6.4233 1.69261C6.49078 1.54184 6.56274 1.60609 7.91844 0.277514C8.68344 -0.471846 8.94025 0.403108 10.3577 1.64386C10.5975 1.85372 10.6596 1.92443 10.4255 2.14107C10.0363 2.50138 8.94345 1.75751 8.91242 2.98664C8.90347 3.34954 8.81232 6.94944 8.92586 7.52445C9.02276 8.01617 9.43724 7.9813 10.271 8.00648Z" fill="#282B33"/>
</g>
<defs>
<clipPath id="clip0_39_315">
<rect width="17" height="17" fill="white"/>
</clipPath>
</defs>
</svg>
