<svg width="13" height="13" viewBox="0 0 13 13" fill="none" xmlns="http://www.w3.org/2000/svg">
<g clip-path="url(#clip0_36_457)">
<path d="M5.32698 -0.000234107C7.12636 0.00315307 8.80177 0.923337 9.78645 2.4137C9.86665 2.53507 9.99965 2.83907 10.0725 2.9181C10.1801 3.03468 10.818 3.36888 11.0304 3.54135C13.1471 5.2578 13.6351 8.32941 12.119 10.6118C10.0194 13.772 5.36059 13.8076 3.24494 10.646C3.16474 10.5263 2.97921 10.1393 2.91116 10.0763C2.83661 10.0075 2.51214 9.8607 2.38931 9.7794C-1.99928 6.86784 0.0567828 -0.00983112 5.32698 -0.000234107ZM7.45308 3.06912C7.3791 3.0725 6.75276 3.125 6.75361 3.18767L9.81695 6.24968C9.86015 6.25024 9.90901 5.87342 9.9155 5.81245C9.92313 5.7385 9.94741 5.38651 9.92934 5.34756L7.67221 3.08746C7.6067 3.03581 7.52537 3.06573 7.4528 3.06912H7.45308ZM9.54219 3.46231C9.32249 3.39231 9.10307 3.25993 8.87095 3.24412L9.77431 4.13326L9.54219 3.46231ZM5.94852 3.40699L5.28491 3.7522L9.25189 7.71746L9.5916 7.04002L5.94852 3.40699ZM4.04212 10.5127C4.63033 11.2556 5.44615 11.8377 6.36448 12.1005C9.83672 13.0952 13.0715 9.93267 12.1105 6.44162C11.851 5.49829 11.2727 4.65149 10.5091 4.04858C11.0033 6.13197 10.2445 8.2707 8.5575 9.56403C7.27546 10.5469 5.6201 10.887 4.04212 10.5127ZM4.6549 4.19281C4.62384 4.20128 4.21042 4.61311 4.19574 4.64161C4.18444 4.66335 4.17654 4.67633 4.19574 4.69779L8.31521 8.8149C8.35842 8.81095 8.7772 8.41493 8.80177 8.36695C8.81306 8.34521 8.82069 8.33223 8.80177 8.31106L4.65462 4.19281H4.6549ZM3.74561 5.29111L3.40449 5.93806L7.03487 9.59621L7.68577 9.28544L3.74561 5.29139V5.29111ZM3.18084 6.75888C3.13763 6.75832 3.08878 7.13486 3.08228 7.19611C3.07325 7.27882 3.04586 7.52552 3.05122 7.59128C3.05461 7.63165 3.06224 7.66439 3.09471 7.69149L5.34167 9.93324C5.62632 9.95384 5.93355 9.89682 6.21707 9.84969L3.18084 6.75888ZM4.12684 9.77827L3.22348 8.87531L3.4556 9.54625L4.12684 9.77827Z" fill="#282B33"/>
</g>
<defs>
<clipPath id="clip0_36_457">
<rect width="13" height="13" fill="white"/>
</clipPath>
</defs>
</svg>
