<svg width="26" height="26" viewBox="0 0 26 26" fill="none" xmlns="http://www.w3.org/2000/svg">
<path fill-rule="evenodd" clip-rule="evenodd" d="M0 15.5406C0.266705 14.8566 0.23039 14.8269 0.873988 14.1738C1.95249 13.0799 4.97809 10.0678 5.03819 9.9971C6.20435 8.62021 3.66834 6.33557 4.9042 2.21786C4.99894 1.90301 5.79072 -0.735785 8.48072 0.199563C11.205 1.14704 11.3076 3.45593 12.6032 2.47333C13.9213 1.47359 14.2126 2.1104 18.2812 6.19591C23.3711 11.3079 24.324 11.7858 23.5005 13.0227C22.9245 13.8878 22.8849 13.8618 14.3812 22.2687C11.5301 25.0873 10.5684 26.6628 9.08091 25.4285C8.64851 25.0697 1.77972 18.143 1.14822 17.5062C-0.190726 16.1561 0.092658 15.9884 0 15.5406ZM6.23897 6.80303C6.29824 7.1367 6.29032 8.8 7.56124 7.48792C10.5801 4.37037 11.0092 4.28759 10.5313 3.47851C9.64019 1.9695 5.98521 -0.548463 5.89088 4.26752C5.87043 5.30196 5.97602 5.28774 6.23897 6.80303ZM12.455 7.92234C12.4834 8.43831 12.642 8.46674 12.299 9.22689C10.614 12.9612 15.8721 12.7061 15.2961 10.0264C15.0724 8.98397 14.1212 8.95219 13.8416 7.98924C13.4718 6.71647 13.5269 6.70769 13.0356 5.48091C12.5494 4.26708 13.2535 3.37941 14.4267 4.54598C18.6222 8.7193 22.0564 12.1843 22.1032 12.2604C22.4696 12.855 21.8774 13.1794 17.8163 17.2729C16.3747 18.7255 10.6073 24.5073 10.5243 24.5617C9.94368 24.9443 9.42739 24.2088 7.9578 22.7357C2.92923 17.694 1.41414 16.3873 1.55271 15.9274C1.74345 15.2931 5.99193 11.361 10.7672 6.45179C11.8803 5.30696 12.0385 6.37862 12.455 7.92234Z" fill="#282B33"/>
<path fill-rule="evenodd" clip-rule="evenodd" d="M26.6226 16.3326C26.7565 16.8135 27.2403 17.6727 26.466 18.9045C25.3654 20.6556 20.2513 19.2478 24.1191 14.4385C24.6613 13.7641 25.4005 13.6374 26.6226 16.3326Z" fill="#282B33"/>
</svg>
