<svg width="21" height="21" viewBox="0 0 21 21" fill="none" xmlns="http://www.w3.org/2000/svg">
<g clip-path="url(#clip0_39_3)">
<path fill-rule="evenodd" clip-rule="evenodd" d="M2.01505 20.7737C1.01427 20.9788 0.875859 21.0604 0.246995 20.2422C-0.31657 19.5088 0.0702598 19.1298 1.55299 14.5301C3.46726 8.59145 3.44916 8.56535 3.81541 8.17056C4.15362 7.80583 8.7285 5.39306 9.73674 4.80356C10.6353 4.27849 10.8273 4.03655 11.8292 4.97824C16.3945 9.26973 16.5141 9.33629 16.4087 9.86315C16.3508 10.1509 14.3169 14.7728 13.7843 16.0269C13.1742 17.4636 12.9229 17.3276 10.4824 18.1007C4.39636 20.0282 2.69289 20.5615 2.01505 20.7737ZM1.48627 18.6115C1.57641 18.5503 1.66726 18.5936 1.98986 18.2701C2.35043 17.9078 2.31281 17.8735 6.45827 13.7055C7.15031 13.0093 7.32136 13.0347 7.29723 12.0476C7.28375 11.4924 7.59285 10.8621 8.01872 10.6313C9.83043 9.65057 11.0012 11.9491 10.0128 13.0082C9.21505 13.8637 8.17949 13.3855 8.0095 13.4177C7.37921 13.5362 5.17712 16.5484 1.91604 19.2082C1.91959 19.3316 1.70169 19.3886 1.70524 19.512C1.71801 19.9483 1.99198 19.5829 6.90969 18.0277C12.1447 16.372 12.3242 16.4704 12.699 15.664C12.7984 15.4514 14.9994 10.3295 15.0313 10.2322C15.2744 9.49235 14.8677 9.36063 12.7267 7.28576C11.1751 5.78248 11.0402 5.35298 9.8354 6.05701C5.20161 8.76362 4.79668 8.45117 4.31829 9.85494C2.62547 14.8215 2.28548 16.1469 1.73647 17.4518C1.38442 18.289 1.32976 18.2758 1.35886 18.4809C1.36738 18.5414 1.47775 18.551 1.48627 18.6115Z" fill="#282B33"/>
<path fill-rule="evenodd" clip-rule="evenodd" d="M12.2146 0.908671C12.5056 0.546095 12.5035 0.548223 12.5287 0.517084C13.297 -0.437496 13.5479 0.0657587 14.422 0.926563C15.1431 1.63704 15.1371 1.63273 15.855 2.34392C20.1474 6.59676 20.1449 6.58389 20.5162 6.95434C21.4027 7.8377 20.7291 8.07176 18.7495 9.33165C17.6476 10.0332 17.6192 9.38678 16.4129 8.23248C11.8813 3.89624 11.8884 3.89338 11.4569 3.56194C10.3844 2.73872 11.0395 2.45561 12.2146 0.908671Z" fill="#282B33"/>
</g>
<defs>
<clipPath id="clip0_39_3">
<rect width="21" height="21" fill="white"/>
</clipPath>
</defs>
</svg>
