<svg width="15" height="18" viewBox="0 0 15 18" fill="none" xmlns="http://www.w3.org/2000/svg">
<path d="M2.33971 0.252686C2.66528 -0.0843182 3.2006 -0.0842253 3.52623 0.252686C3.84233 0.580058 3.84243 1.10409 3.52623 1.4314L2.8065 2.17651H9.86314C11.5546 2.17658 12.8963 3.59146 12.8963 5.29956V15.0945L13.576 14.3914C13.9016 14.0544 14.4369 14.0545 14.7626 14.3914C15.0787 14.7187 15.0788 15.2428 14.7626 15.5701L12.66 17.7468C12.3345 18.0837 11.7991 18.0836 11.4735 17.7468L9.36998 15.5701C9.05374 15.2427 9.05377 14.7187 9.36998 14.3914L9.43346 14.3328C9.73995 14.0745 10.1865 14.0745 10.493 14.3328L10.5565 14.3914L11.2362 15.0945V5.29956C11.2362 4.48879 10.6051 3.86115 9.86314 3.86108H2.8065L3.52623 4.6062C3.84233 4.93357 3.84243 5.45761 3.52623 5.78491C3.20064 6.12164 2.66526 6.12171 2.33971 5.78491L0.237167 3.60815C-0.0790753 3.28081 -0.0790428 2.75681 0.237167 2.42944L2.33971 0.252686Z" fill="black"/>
</svg>
