<svg width="21" height="23" viewBox="0 0 21 23" fill="none" xmlns="http://www.w3.org/2000/svg">
<path fill-rule="evenodd" clip-rule="evenodd" d="M0.127576 4.01665C0.0933711 3.77341 -0.0434452 3.79953 0.0138482 3.20386C0.287916 0.363804 0.231048 0.280734 0.498275 0.150123C0.835194 -0.0147477 0.859994 0.0177892 17.201 0.0177892C20.22 0.0177892 20.7707 -0.219869 20.819 1.04214C20.9229 3.78327 21.0876 3.81368 20.9435 4.00168C20.8776 4.08818 20.7199 4.00509 20.6224 4.0522C20.5257 4.09888 20.4928 4.28686 20.3872 4.27144C20.3085 4.25945 19.7318 2.36151 19.2413 2.0489C18.7133 1.71273 12.0993 1.74657 11.7406 2.02621C11.4255 2.27245 11.4648 2.36581 11.4648 13.8973C11.4648 20.0318 11.3656 20.2887 12.0237 20.4776C12.8258 20.708 14.406 19.9132 14.4633 21.6C14.5048 22.8217 13.4534 22.5853 10.7876 22.5862C7.04169 22.5879 6.43199 22.8037 6.39651 21.6102C6.33494 19.5149 9.1748 21.3722 9.41424 19.8772C9.47281 19.5115 9.43604 4.52667 9.43262 3.19186C9.42877 1.58641 8.78615 1.84508 7.36707 1.84508C2.01399 1.84465 1.64671 1.6485 1.12252 2.88739C0.863844 3.49848 0.836475 3.4758 0.543167 4.07875L0.127576 4.01665Z" fill="#282B33"/>
</svg>
