<svg width="20" height="19" viewBox="0 0 20 19" fill="none" xmlns="http://www.w3.org/2000/svg">
<path fill-rule="evenodd" clip-rule="evenodd" d="M13.4317 5.74385C13.4818 7.96398 13.5246 8.39897 12.5839 10.1557C12.0651 11.1248 12.7039 11.1197 17.1898 15.2703C19.0731 17.0125 20.5894 17.9149 19.7138 18.7528C18.8495 19.5798 17.5689 17.7895 15.993 16.482C12.6845 13.7369 11.5459 11.998 10.6487 12.26C10.2897 12.3645 7.54844 14.6167 3.67797 12.719C2.24768 12.0173 0.634067 10.4224 0.177427 8.26163C-1.31324 1.20414 6.95312 -2.39966 11.3486 1.77502C13.3494 3.67528 13.4222 5.68447 13.4317 5.74385ZM12.2949 6.09396C11.723 1.37427 7.24327 1.13927 6.6399 1.10794C4.96812 1.02014 0.521737 2.59363 1.25317 7.54174C1.88946 11.8468 6.49976 13.1751 9.26119 11.6942C12.6198 9.89303 12.3252 7.0113 12.2949 6.09396Z" fill="#282B33"/>
</svg>
